<svg xmlns="http://www.w3.org/2000/svg" width="1600" height="640" viewBox="0 0 1600 640" role="img" aria-label="MCP Server banner">
<defs>
  <linearGradient id="gradB" x1="0" y1="0" x2="1" y2="1">
    <stop offset="0" stop-color="#a78bfa"/><stop offset="1" stop-color="#7c3aed"/></linearGradient>
  <linearGradient id="bggB" x1="0" y1="0" x2="0.6" y2="1">
    <stop offset="0" stop-color="#1d1c39"/><stop offset="1" stop-color="#0f0a1f"/></linearGradient>
  <radialGradient id="glowB" cx="0.5" cy="0.5" r="0.5">
    <stop offset="0" stop-color="#a78bfa" stop-opacity="0.55"/>
    <stop offset="0.55" stop-color="#7c3aed" stop-opacity="0.12"/>
    <stop offset="1" stop-color="#a78bfa" stop-opacity="0"/></radialGradient>
  <filter id="blurB" x="-60%" y="-60%" width="220%" height="220%">
    <feGaussianBlur stdDeviation="9"/></filter>
  <linearGradient id="sheenB" x1="0" y1="0" x2="0" y2="1">
    <stop offset="0" stop-color="#ffffff" stop-opacity="0.10"/>
    <stop offset="0.45" stop-color="#ffffff" stop-opacity="0"/></linearGradient>
  <pattern id="gridB" width="32" height="32" patternUnits="userSpaceOnUse">
    <path d="M32 0H0V32" fill="none" stroke="#a78bfa" stroke-opacity="0.05" stroke-width="1"/></pattern>
</defs>
<rect width="1600" height="640" fill="url(#bggB)"/>
<rect width="1600" height="640" fill="url(#gridB)"/>
<circle cx="1230" cy="150" r="430" fill="url(#glowB)"/>
<g transform="translate(990.00 50.00) scale(23.3333)" fill="#a78bfa" fill-rule="evenodd" opacity="0.07"><path d="M15.688 2.343a2.588 2.588 0 00-3.61 0l-9.626 9.44a.863.863 0 01-1.203 0 .823.823 0 010-1.18l9.626-9.44a4.313 4.313 0 016.016 0 4.116 4.116 0 011.204 3.54 4.3 4.3 0 013.609 1.18l.05.05a4.115 4.115 0 010 5.9l-8.706 8.537a.274.274 0 000 .393l1.788 1.754a.823.823 0 010 1.18.863.863 0 01-1.203 0l-1.788-1.753a1.92 1.92 0 010-2.754l8.706-8.538a2.47 2.47 0 000-3.54l-.05-.049a2.588 2.588 0 00-3.607-.003l-7.172 7.034-.002.002-.098.097a.863.863 0 01-1.204 0 .823.823 0 010-1.18l7.273-7.133a2.47 2.47 0 00-.003-3.537z"></path><path d="M14.485 4.703a.823.823 0 000-1.18.863.863 0 00-1.204 0l-7.119 6.982a4.115 4.115 0 000 5.9 4.314 4.314 0 006.016 0l7.12-6.982a.823.823 0 000-1.18.863.863 0 00-1.204 0l-7.119 6.982a2.588 2.588 0 01-3.61 0 2.47 2.47 0 010-3.54l7.12-6.982z"></path></g>
<circle cx="1270" cy="330" r="250" fill="none" stroke="#a78bfa" stroke-opacity="0.10" stroke-width="2"/>
<circle cx="1270" cy="330" r="320" fill="none" stroke="#a78bfa" stroke-opacity="0.06" stroke-width="2"/>
<rect x="110" y="150" width="150" height="150" rx="36" fill="#ffffff" fill-opacity="0.04"/>
<rect x="110" y="150" width="150" height="150" rx="36" fill="none" stroke="url(#gradB)" stroke-opacity="0.55" stroke-width="2"/>
<rect x="110" y="150" width="150" height="150" rx="36" fill="url(#sheenB)"/>
<g filter="url(#blurB)" opacity="0.45"><g transform="translate(139.00 187.00) scale(3.8333)" fill="#000000" fill-rule="evenodd"><path d="M15.688 2.343a2.588 2.588 0 00-3.61 0l-9.626 9.44a.863.863 0 01-1.203 0 .823.823 0 010-1.18l9.626-9.44a4.313 4.313 0 016.016 0 4.116 4.116 0 011.204 3.54 4.3 4.3 0 013.609 1.18l.05.05a4.115 4.115 0 010 5.9l-8.706 8.537a.274.274 0 000 .393l1.788 1.754a.823.823 0 010 1.18.863.863 0 01-1.203 0l-1.788-1.753a1.92 1.92 0 010-2.754l8.706-8.538a2.47 2.47 0 000-3.54l-.05-.049a2.588 2.588 0 00-3.607-.003l-7.172 7.034-.002.002-.098.097a.863.863 0 01-1.204 0 .823.823 0 010-1.18l7.273-7.133a2.47 2.47 0 00-.003-3.537z"></path><path d="M14.485 4.703a.823.823 0 000-1.18.863.863 0 00-1.204 0l-7.119 6.982a4.115 4.115 0 000 5.9 4.314 4.314 0 006.016 0l7.12-6.982a.823.823 0 000-1.18.863.863 0 00-1.204 0l-7.119 6.982a2.588 2.588 0 01-3.61 0 2.47 2.47 0 010-3.54l7.12-6.982z"></path></g></g><g transform="translate(139.00 179.00) scale(3.8333)" fill="url(#gradB)" fill-rule="evenodd"><path d="M15.688 2.343a2.588 2.588 0 00-3.61 0l-9.626 9.44a.863.863 0 01-1.203 0 .823.823 0 010-1.18l9.626-9.44a4.313 4.313 0 016.016 0 4.116 4.116 0 011.204 3.54 4.3 4.3 0 013.609 1.18l.05.05a4.115 4.115 0 010 5.9l-8.706 8.537a.274.274 0 000 .393l1.788 1.754a.823.823 0 010 1.18.863.863 0 01-1.203 0l-1.788-1.753a1.92 1.92 0 010-2.754l8.706-8.538a2.47 2.47 0 000-3.54l-.05-.049a2.588 2.588 0 00-3.607-.003l-7.172 7.034-.002.002-.098.097a.863.863 0 01-1.204 0 .823.823 0 010-1.18l7.273-7.133a2.47 2.47 0 00-.003-3.537z"></path><path d="M14.485 4.703a.823.823 0 000-1.18.863.863 0 00-1.204 0l-7.119 6.982a4.115 4.115 0 000 5.9 4.314 4.314 0 006.016 0l7.12-6.982a.823.823 0 000-1.18.863.863 0 00-1.204 0l-7.119 6.982a2.588 2.588 0 01-3.61 0 2.47 2.47 0 010-3.54l7.12-6.982z"></path></g>
<text x="300" y="195" font-family="'Inter','Segoe UI','Helvetica Neue',-apple-system,system-ui,'Noto Sans CJK TC','PingFang TC','Microsoft JhengHei',sans-serif" font-size="24" font-weight="600" letter-spacing="3" fill="#a78bfa" fill-opacity="0.85">JSON-RPC · STDIO · TOOLS</text>
<text x="300" y="266" font-family="'Inter','Segoe UI','Helvetica Neue',-apple-system,system-ui,'Noto Sans CJK TC','PingFang TC','Microsoft JhengHei',sans-serif" font-size="76" font-weight="800" fill="#ffffff" letter-spacing="-1">MCP Server<tspan dx="22" font-size="32" font-weight="700" letter-spacing="2" fill="#a78bfa">STARTER</tspan></text>
<rect x="302" y="292" width="120" height="4" rx="2" fill="url(#gradB)"/>
<text x="300" y="346" font-family="'Inter','Segoe UI','Helvetica Neue',-apple-system,system-ui,'Noto Sans CJK TC','PingFang TC','Microsoft JhengHei',sans-serif" font-size="30" font-weight="500" fill="#ffffff" fill-opacity="0.78">最小 JSON-RPC,看懂工具註冊與安全邊界</text>
<rect x="300" y="430" width="138" height="50" rx="25" fill="#ffffff" fill-opacity="0.05"/>
<rect x="300" y="430" width="138" height="50" rx="25" fill="none" stroke="#ffffff" stroke-opacity="0.10" stroke-width="1"/>
<g transform="translate(318.00 443.00) scale(1.0000)" fill="#ffffff" opacity="0.92"><path d="M14.25.18l.9.2.73.26.59.3.45.32.34.34.25.34.16.33.1.3.04.26.02.2-.01.13V8.5l-.05.63-.13.55-.21.46-.26.38-.3.31-.33.25-.35.19-.35.14-.33.1-.3.07-.26.04-.21.02H8.77l-.69.05-.59.14-.5.22-.41.27-.33.32-.27.35-.2.36-.15.37-.1.35-.07.32-.04.27-.02.21v3.06H3.17l-.21-.03-.28-.07-.32-.12-.35-.18-.36-.26-.36-.36-.35-.46-.32-.59-.28-.73-.21-.88-.14-1.05-.05-1.23.06-1.22.16-1.04.24-.87.32-.71.36-.57.4-.44.42-.33.42-.24.4-.16.36-.1.32-.05.24-.01h.16l.06.01h8.16v-.83H6.18l-.01-2.75-.02-.37.05-.34.11-.31.17-.28.25-.26.31-.23.38-.2.44-.18.51-.15.58-.12.64-.1.71-.06.77-.04.84-.02 1.27.05zm-6.3 1.98l-.23.33-.08.41.08.41.23.34.33.22.41.09.41-.09.33-.22.23-.34.08-.41-.08-.41-.23-.33-.33-.22-.41-.09-.41.09zm13.09 3.95l.28.06.32.12.35.18.36.27.36.35.35.47.32.59.28.73.21.88.14 1.04.05 1.23-.06 1.23-.16 1.04-.24.86-.32.71-.36.57-.4.45-.42.33-.42.24-.4.16-.36.09-.32.05-.24.02-.16-.01h-8.22v.82h5.84l.01 2.76.02.36-.05.34-.11.31-.17.29-.25.25-.31.24-.38.2-.44.17-.51.15-.58.13-.64.09-.71.07-.77.04-.84.01-1.27-.04-1.07-.14-.9-.2-.73-.25-.59-.3-.45-.33-.34-.34-.25-.34-.16-.33-.1-.3-.04-.25-.02-.2.01-.13v-5.34l.05-.64.13-.54.21-.46.26-.38.3-.32.33-.24.35-.2.35-.14.33-.1.3-.06.26-.04.21-.02.13-.01h5.84l.69-.05.59-.14.5-.21.41-.28.33-.32.27-.35.2-.36.15-.36.1-.35.07-.32.04-.28.02-.21V6.07h2.09l.14.01zm-6.47 14.25l-.23.33-.08.41.08.41.23.33.33.23.41.08.41-.08.33-.23.23-.33.08-.41-.08-.41-.23-.33-.33-.23-.41-.08-.41.08z"/></g>
<text x="348" y="462" font-family="'Inter','Segoe UI','Helvetica Neue',-apple-system,system-ui,'Noto Sans CJK TC','PingFang TC','Microsoft JhengHei',sans-serif" font-size="20" font-weight="600" fill="#ffffff" fill-opacity="0.85">Python</text>
<rect x="454" y="430" width="164" height="50" rx="25" fill="#ffffff" fill-opacity="0.05"/>
<rect x="454" y="430" width="164" height="50" rx="25" fill="none" stroke="#ffffff" stroke-opacity="0.10" stroke-width="1"/>
<g transform="translate(472.00 443.00) scale(1.0000)" fill="#ffffff" opacity="0.92"><path d="M12.043 23.968c.479-.004.953-.029 1.426-.094a11.805 11.805 0 003.146-.863 12.404 12.404 0 003.793-2.542 11.977 11.977 0 002.44-3.427 11.794 11.794 0 001.02-3.476c.149-1.16.135-2.346-.045-3.499a11.96 11.96 0 00-.793-2.788 11.197 11.197 0 00-.854-1.617c-1.168-1.837-2.861-3.314-4.81-4.3a12.835 12.835 0 00-2.172-.87h-.005c.119.063.24.132.345.201.12.074.239.146.351.225a8.93 8.93 0 011.559 1.33c1.063 1.145 1.797 2.548 2.218 4.041.284.982.434 1.998.495 3.017.044.743.044 1.491-.047 2.229-.149 1.27-.554 2.51-1.228 3.596a7.475 7.475 0 01-1.903 2.084c-1.244.928-2.877 1.482-4.436 1.114a3.916 3.916 0 01-.748-.258 4.692 4.692 0 01-.779-.45 6.08 6.08 0 01-1.244-1.105 6.507 6.507 0 01-1.049-1.747 7.366 7.366 0 01-.494-2.54c-.03-1.273.225-2.553.854-3.67a6.43 6.43 0 011.663-1.918c.225-.178.464-.333.704-.479l.016-.007a5.121 5.121 0 00-1.441-.12 4.963 4.963 0 00-1.228.24c-.359.12-.704.27-1.019.45a6.146 6.146 0 00-.733.494c-.211.18-.42.36-.615.555-1.123 1.153-1.768 2.682-2.022 4.256-.15.973-.15 1.96-.091 2.95.105 1.395.391 2.787.945 4.062a8.518 8.518 0 001.348 2.173 8.14 8.14 0 003.132 2.23 7.934 7.934 0 002.113.54c.074.015.149.015.209.015zm-2.934-.398a4.102 4.102 0 01-.45-.228 8.5 8.5 0 01-2.038-1.534c-1.094-1.137-1.827-2.566-2.247-4.08a15.184 15.184 0 01-.495-3.172 12.14 12.14 0 01.046-2.082c.135-1.257.495-2.501 1.124-3.58a6.889 6.889 0 011.783-2.053 6.23 6.23 0 011.633-.9 5.363 5.363 0 013.522-.045c.029 0 .029 0 .045.03.015.015.045.015.06.03.045.016.104.045.165.074.239.12.479.271.704.42a6.294 6.294 0 012.097 2.502c.42.914.615 1.934.631 2.938.014 1.079-.18 2.157-.645 3.146a6.42 6.42 0 01-2.638 2.832c.09.03.18.045.271.075.225.044.449.074.688.074 1.468.045 2.892-.66 3.94-1.647.195-.18.375-.375.54-.585.225-.27.435-.54.614-.823.239-.375.435-.75.614-1.154a8.112 8.112 0 00.509-1.664c.196-1.004.211-2.022.149-3.026-.135-2.022-.673-4.045-1.842-5.724a9.054 9.054 0 00-.555-.719 9.868 9.868 0 00-1.063-1.034 8.477 8.477 0 00-1.363-.915 9.927 9.927 0 00-1.692-.598l-.3-.06c-.209-.03-.42-.044-.634-.06a8.453 8.453 0 00-1.015.016c-.704.045-1.412.16-2.112.337C5.799 1.227 2.863 3.566 1.3 6.67A11.834 11.834 0 00.238 9.801a11.81 11.81 0 00-.104 3.775c.12 1.02.374 2.023.778 2.977.227.57.511 1.124.825 1.648 1.094 1.783 2.683 3.236 4.51 4.24.688.39 1.408.69 2.157.944.226.074.45.15.689.21z"/></g>
<text x="502" y="462" font-family="'Inter','Segoe UI','Helvetica Neue',-apple-system,system-ui,'Noto Sans CJK TC','PingFang TC','Microsoft JhengHei',sans-serif" font-size="20" font-weight="600" fill="#ffffff" fill-opacity="0.85">JSON-RPC</text>
<rect x="634" y="430" width="164" height="50" rx="25" fill="#ffffff" fill-opacity="0.05"/>
<rect x="634" y="430" width="164" height="50" rx="25" fill="none" stroke="#ffffff" stroke-opacity="0.10" stroke-width="1"/>
<g transform="translate(652.00 443.00) scale(1.0000)" fill="#ffffff" fill-rule="evenodd" opacity="0.92"><path d="M4.709 15.955l4.72-2.647.08-.23-.08-.128H9.2l-.79-.048-2.698-.073-2.339-.097-2.266-.122-.571-.121L0 11.784l.055-.352.48-.321.686.06 1.52.103 2.278.158 1.652.097 2.449.255h.389l.055-.157-.134-.098-.103-.097-2.358-1.596-2.552-1.688-1.336-.972-.724-.491-.364-.462-.158-1.008.656-.722.881.06.225.061.893.686 1.908 1.476 2.491 1.833.365.304.145-.103.019-.073-.164-.274-1.355-2.446-1.446-2.49-.644-1.032-.17-.619a2.97 2.97 0 01-.104-.729L6.283.134 6.696 0l.996.134.42.364.62 1.414 1.002 2.229 1.555 3.03.456.898.243.832.091.255h.158V9.01l.128-1.706.237-2.095.23-2.695.08-.76.376-.91.747-.492.584.28.48.685-.067.444-.286 1.851-.559 2.903-.364 1.942h.212l.243-.242.985-1.306 1.652-2.064.73-.82.85-.904.547-.431h1.033l.76 1.129-.34 1.166-1.064 1.347-.881 1.142-1.264 1.7-.79 1.36.073.11.188-.02 2.856-.606 1.543-.28 1.841-.315.833.388.091.395-.328.807-1.969.486-2.309.462-3.439.813-.042.03.049.061 1.549.146.662.036h1.622l3.02.225.79.522.474.638-.079.485-1.215.62-1.64-.389-3.829-.91-1.312-.329h-.182v.11l1.093 1.068 2.006 1.81 2.509 2.33.127.578-.322.455-.34-.049-2.205-1.657-.851-.747-1.926-1.62h-.128v.17l.444.649 2.345 3.521.122 1.08-.17.353-.608.213-.668-.122-1.374-1.925-1.415-2.167-1.143-1.943-.14.08-.674 7.254-.316.37-.729.28-.607-.461-.322-.747.322-1.476.389-1.924.315-1.53.286-1.9.17-.632-.012-.042-.14.018-1.434 1.967-2.18 2.945-1.726 1.845-.414.164-.717-.37.067-.662.401-.589 2.388-3.036 1.44-1.882.93-1.086-.006-.158h-.055L4.132 18.56l-1.13.146-.487-.456.061-.746.231-.243 1.908-1.312-.006.006z"></path></g>
<text x="682" y="462" font-family="'Inter','Segoe UI','Helvetica Neue',-apple-system,system-ui,'Noto Sans CJK TC','PingFang TC','Microsoft JhengHei',sans-serif" font-size="20" font-weight="600" fill="#ffffff" fill-opacity="0.85">AI / LLM</text>
</svg>